<svg width="23" height="21" viewBox="0 0 23 21" fill="none" xmlns="http://www.w3.org/2000/svg">
<path id="message/Icon" d="M7.5 5.90552C7.08579 5.90552 6.75 6.2413 6.75 6.65552C6.75 7.06973 7.08579 7.40552 7.5 7.40552V5.90552ZM15.5 7.40552C15.9142 7.40552 16.25 7.06973 16.25 6.65552C16.25 6.2413 15.9142 5.90552 15.5 5.90552V7.40552ZM7.5 9.90552C7.08579 9.90552 6.75 10.2413 6.75 10.6555C6.75 11.0697 7.08579 11.4055 7.5 11.4055V9.90552ZM11.5 11.4055C11.9142 11.4055 12.25 11.0697 12.25 10.6555C12.25 10.2413 11.9142 9.90552 11.5 9.90552V11.4055ZM21.282 14.5635L21.9503 14.904V14.904L21.282 14.5635ZM20.408 15.4375L20.7485 16.1058L20.408 15.4375ZM20.408 1.8735L20.7485 1.20525L20.7485 1.20525L20.408 1.8735ZM21.282 2.74754L21.9503 2.40704V2.40704L21.282 2.74754ZM2.59202 1.8735L2.93251 2.54176L2.93251 2.54176L2.59202 1.8735ZM1.71799 2.74754L2.38624 3.08803L2.38624 3.08803L1.71799 2.74754ZM2.70734 19.0416L3.14003 19.6542L3.14011 19.6542L2.70734 19.0416ZM6.66989 16.242L6.23712 15.6295H6.23712L6.66989 16.242ZM1.59027 19.1331L2.20486 18.7032H2.20486L1.59027 19.1331ZM2.60335 19.1038L2.2683 18.4328L2.26829 18.4328L2.60335 19.1038ZM1.92692 19.3411L1.8173 20.0831H1.8173L1.92692 19.3411ZM2.66983 19.0675L2.26547 18.4358L2.26536 18.4359L2.66983 19.0675ZM2.64376 19.0831L2.2785 18.428L2.27845 18.4281L2.64376 19.0831ZM7.76828 15.6895L7.90589 16.4267L7.90589 16.4267L7.76828 15.6895ZM7.30048 15.8381L7.61351 16.5196L7.61352 16.5196L7.30048 15.8381ZM7.5 7.40552H15.5V5.90552H7.5V7.40552ZM7.5 11.4055H11.5V9.90552H7.5V11.4055ZM4.7 2.40552H18.3V0.905518H4.7V2.40552ZM20.75 4.85552V12.4555H22.25V4.85552H20.75ZM20.75 12.4555C20.75 13.0279 20.7494 13.4122 20.7252 13.708C20.7018 13.9952 20.6599 14.1324 20.6138 14.223L21.9503 14.904C22.1221 14.5667 22.1892 14.2101 22.2203 13.8302C22.2506 13.4591 22.25 13.0032 22.25 12.4555H20.75ZM18.3 16.4055C18.8477 16.4055 19.3035 16.4061 19.6747 16.3758C20.0546 16.3447 20.4112 16.2776 20.7485 16.1058L20.0675 14.7693C19.9769 14.8154 19.8396 14.8573 19.5525 14.8808C19.2566 14.9049 18.8724 14.9055 18.3 14.9055V16.4055ZM20.6138 14.223C20.4939 14.4582 20.3027 14.6494 20.0675 14.7693L20.7485 16.1058C21.2659 15.8421 21.6866 15.4214 21.9503 14.904L20.6138 14.223ZM18.3 2.40552C18.8724 2.40552 19.2566 2.4061 19.5525 2.43028C19.8396 2.45373 19.9769 2.49562 20.0675 2.54176L20.7485 1.20525C20.4112 1.03341 20.0546 0.966295 19.6747 0.935257C19.3035 0.904934 18.8477 0.905518 18.3 0.905518V2.40552ZM22.25 4.85552C22.25 4.30784 22.2506 3.85198 22.2203 3.48085C22.1892 3.10096 22.1221 2.74431 21.9503 2.40704L20.6138 3.08803C20.6599 3.17859 20.7018 3.31587 20.7252 3.603C20.7494 3.89887 20.75 4.28309 20.75 4.85552H22.25ZM20.0675 2.54176C20.3027 2.6616 20.4939 2.85283 20.6138 3.08803L21.9503 2.40704C21.6866 1.8896 21.2659 1.4689 20.7485 1.20525L20.0675 2.54176ZM4.7 0.905518C4.15232 0.905518 3.69646 0.904934 3.32533 0.935257C2.94544 0.966295 2.58879 1.03341 2.25153 1.20525L2.93251 2.54176C3.02307 2.49562 3.16035 2.45373 3.44748 2.43028C3.74336 2.4061 4.12757 2.40552 4.7 2.40552V0.905518ZM2.25 4.85552C2.25 4.28309 2.25058 3.89887 2.27476 3.603C2.29822 3.31587 2.3401 3.17859 2.38624 3.08803L1.04973 2.40704C0.877888 2.74431 0.810777 3.10096 0.779739 3.48085C0.749417 3.85198 0.75 4.30784 0.75 4.85552H2.25ZM2.25153 1.20525C1.73408 1.4689 1.31338 1.8896 1.04973 2.40704L2.38624 3.08803C2.50608 2.85283 2.69731 2.6616 2.93251 2.54176L2.25153 1.20525ZM18.3 14.9055H8.51639V16.4055H18.3V14.9055ZM3.14011 19.6542L7.10267 16.8545L6.23712 15.6295L2.27457 18.4291L3.14011 19.6542ZM0.75 18.3611C0.75 18.5608 0.749252 18.7622 0.764406 18.9278C0.77946 19.0923 0.817386 19.3366 0.97568 19.5629L2.20486 18.7032C2.27289 18.8005 2.26568 18.8731 2.25816 18.791C2.25499 18.7564 2.25258 18.7065 2.2513 18.6315C2.25002 18.5569 2.25 18.4701 2.25 18.3611H0.75ZM2.26829 18.4328C2.18118 18.4763 2.11175 18.5107 2.0523 18.5387C1.99244 18.5669 1.9529 18.5838 1.92597 18.5939C1.86294 18.6177 1.92374 18.5825 2.03654 18.5992L1.8173 20.0831C2.07835 20.1216 2.30366 20.0546 2.45491 19.9976C2.6054 19.9409 2.77432 19.8568 2.93841 19.7748L2.26829 18.4328ZM0.975679 19.5629C1.17274 19.8447 1.47716 20.0328 1.8173 20.0831L2.03654 18.5992C2.10457 18.6092 2.16545 18.6469 2.20486 18.7032L0.975679 19.5629ZM2.25 18.3611V4.85552H0.75V18.3611H2.25ZM2.27465 18.429C2.26983 18.4324 2.26637 18.4349 2.26338 18.437C2.26043 18.439 2.25887 18.4401 2.25804 18.4407C2.25672 18.4416 2.26002 18.4393 2.26547 18.4358L3.0742 19.6991C3.10147 19.6817 3.12688 19.6635 3.14003 19.6542L2.27465 18.429ZM2.9384 19.7748C2.95307 19.7675 2.9808 19.7539 3.00907 19.7381L2.27845 18.4281C2.28396 18.425 2.28751 18.4232 2.28623 18.4238C2.28538 18.4243 2.28372 18.4251 2.28053 18.4267C2.27732 18.4283 2.27354 18.4302 2.2683 18.4328L2.9384 19.7748ZM2.26536 18.4359C2.26971 18.4331 2.27403 18.4305 2.2785 18.428L3.00902 19.7381C3.03112 19.7258 3.05295 19.7127 3.0743 19.6991L2.26536 18.4359ZM8.51639 14.9055C8.16604 14.9055 7.8965 14.9026 7.63067 14.9522L7.90589 16.4267C8.00388 16.4084 8.1118 16.4055 8.51639 16.4055V14.9055ZM7.10266 16.8545C7.4331 16.6211 7.52294 16.5612 7.61351 16.5196L6.98745 15.1565C6.7417 15.2694 6.52325 15.4273 6.23712 15.6295L7.10266 16.8545ZM7.63067 14.9522C7.40869 14.9936 7.19265 15.0623 6.98745 15.1565L7.61352 16.5196C7.70679 16.4768 7.80499 16.4456 7.90589 16.4267L7.63067 14.9522Z" fill="#807D7E"/>
</svg>
